<?xml version="1.0" encoding="UTF-8"?>
<svg id="Layer_1" xmlns="http://www.w3.org/2000/svg" version="1.1" viewBox="0 0 141.6 156.76">
  <!-- Generator: Adobe Illustrator 30.0.0, SVG Export Plug-In . SVG Version: 2.1.1 Build 123)  -->
  <defs>
    <style>
      .st0 {
        fill: #231f20;
      }
    </style>
  </defs>
  <path class="st0" d="M73.55,156.76h-.12s-16.96-.21-16.96-.21c-4.67-.09-9.11-2.09-12.24-5.49s-4.75-8-4.44-12.61l3.48-52.93c.03-1.2-.87-2.25-2.06-2.4l-26.8-3.36c-5.52-.63-10.33-4.04-12.78-9.13-2.44-5.06-2.12-10.92.85-15.67C13.04,38.08,42.81,15.51,59.62,3.57c6.69-4.75,15.68-4.75,22.37,0h0c16.81,11.95,46.58,34.51,57.14,51.39,2.97,4.75,3.29,10.61.85,15.67-2.45,5.08-7.26,8.5-12.86,9.14l-26.72,3.35c-1.2.15-2.09,1.2-2.06,2.4l3.48,52.93c.3,4.61-1.31,9.21-4.44,12.61s-7.57,5.41-12.2,5.49l-11.63.21ZM70.8,15c-.87,0-1.75.27-2.49.79C41.65,34.74,21.8,52.35,15.2,62.91c-.24.38-.26.78-.06,1.2.15.3.45.68,1.05.75l26.88,3.37c8.92,1.12,15.59,9.03,15.18,18.01v.15s-3.5,53.03-3.5,53.03c-.05.7.26,1.19.52,1.48.26.29.72.63,1.43.64l16.8.21,11.39-.21c.7-.01,1.17-.36,1.43-.64.26-.29.57-.77.52-1.48l-3.5-53.19c-.41-8.98,6.26-16.9,15.18-18.01l26.8-3.36c.69-.08.99-.46,1.13-.76.2-.42.18-.82-.06-1.2-6.6-10.56-26.46-28.17-53.11-47.12h0c-.75-.53-1.62-.79-2.49-.79Z"/>
</svg>