<?xml version="1.0" encoding="UTF-8"?>
<svg id="Layer_1" data-name="Layer 1" xmlns="http://www.w3.org/2000/svg" viewBox="0 0 538.32 101.27">
  <defs>
    <style>
      .cls-1 {
        stroke-width: 0px;
      }
    </style>
  </defs>
  <g>
    <path fill="currentColor" class="cls-1" d="M1.99,58.42c0-.78-.05-1.56.02-2.33.14-1.54-.18-2.94-.98-4.27-.46-.76-.87-1.56-1-2.46-.21-1.47.68-2.97,2.08-3.49,1.56-.58,3.05-.33,4.38.54,1.48.97,3.05,1.69,4.7,2.28.89.32,1.63.86,2.11,1.69.59,1.01.53,2.06-.02,3.05-.31.57-.75,1.08-1.2,1.55-1.01,1.03-1.92,2.13-2.65,3.39-.68,1.19-1.68,2.04-3.01,2.46-1.74.56-3.92-.29-4.43-2.41Z"/>
    <path fill="currentColor" class="cls-1" d="M19.74,56.34c-1.56.31-2.87.18-4.04-.62-1.51-1.02-1.55-2.78-.1-3.88,1.52-1.15,4.06-1.17,5.59-.05,1.58,1.16,1.39,3.13-.4,4.1-.39.21-.82.34-1.05.44Z"/>
    <path fill="currentColor" class="cls-1" d="M16.71,43.97c.73-.16,1.45-.17,2.17.05,1.42.44,2.03,1.77,1.42,3.13-.55,1.21-1.53,1.95-2.75,2.4-.88.32-1.78.42-2.7.15-1.43-.42-2.06-1.67-1.5-3.06.45-1.13,1.34-1.85,2.42-2.34.3-.14.63-.22.94-.34Z"/>
    <path fill="currentColor" class="cls-1" d="M10.28,39.93c.79-.16,1.54-.14,2.23.31.84.55,1.08,1.37.92,2.3-.32,1.93-2.44,3.51-4.38,3.32-1.4-.14-2.27-1.22-2.02-2.61.25-1.42,1.14-2.36,2.38-2.99.27-.14.58-.22.87-.32Z"/>
    <path fill="currentColor" class="cls-1" d="M15.46,62.79c-1.67.28-3.15-.07-4.25-1.42-.98-1.2-.64-2.67.71-3.43,1.59-.9,4.05-.41,5.17,1.03,1.12,1.43.52,3.22-1.24,3.73-.13.04-.27.06-.4.09Z"/>
  </g>
  <g>
    <path fill="currentColor" class="cls-1" d="M515.71,51.7c.43-.65.82-1.33,1.31-1.93.97-1.2,1.49-2.55,1.56-4.09.04-.89.14-1.78.54-2.6.64-1.34,2.22-2.09,3.67-1.75,1.61.38,2.72,1.42,3.35,2.88.7,1.63,1.6,3.1,2.65,4.51.56.76.88,1.61.82,2.57-.07,1.17-.7,2.01-1.71,2.53-.58.3-1.22.48-1.86.62-1.42.3-2.78.71-4.08,1.35-1.23.61-2.53.76-3.87.37-1.76-.51-3.1-2.41-2.35-4.46Z"/>
    <path fill="currentColor" class="cls-1" d="M531.63,59.82c-1.47-.61-2.48-1.44-3.02-2.76-.69-1.69.25-3.17,2.07-3.28,1.9-.11,4.02,1.28,4.67,3.06.67,1.84-.58,3.38-2.61,3.19-.44-.04-.87-.17-1.11-.22Z"/>
    <path fill="currentColor" class="cls-1" d="M535.97,47.85c.7.27,1.3.67,1.77,1.25.94,1.16.71,2.6-.56,3.39-1.13.7-2.36.77-3.62.47-.91-.22-1.71-.64-2.33-1.37-.96-1.14-.78-2.53.45-3.38,1.01-.69,2.14-.79,3.31-.6.33.05.65.16.97.24Z"/>
    <path fill="currentColor" class="cls-1" d="M532.87,40.92c.74.3,1.36.73,1.68,1.49.39.92.14,1.74-.51,2.43-1.34,1.42-3.98,1.57-5.48.33-1.09-.89-1.21-2.28-.23-3.3.99-1.04,2.26-1.33,3.64-1.17.3.04.6.14.9.21Z"/>
    <path fill="currentColor" class="cls-1" d="M524.49,62.81c-1.54-.69-2.58-1.8-2.74-3.54-.15-1.54.95-2.58,2.49-2.47,1.82.14,3.6,1.91,3.73,3.73.13,1.81-1.35,2.97-3.1,2.42-.13-.04-.26-.1-.38-.15Z"/>
  </g>
  <g>
    <path fill="currentColor" class="cls-1" d="M55.7,53.92c.29-.72.52-1.47.87-2.16.69-1.38.91-2.8.66-4.33-.15-.88-.24-1.77-.03-2.66.34-1.45,1.72-2.51,3.21-2.48,1.66.03,2.96.81,3.88,2.1,1.02,1.44,2.22,2.69,3.54,3.85.71.62,1.2,1.39,1.34,2.34.18,1.16-.26,2.11-1.13,2.83-.5.41-1.09.73-1.69,1-1.32.59-2.57,1.28-3.71,2.19-1.07.85-2.31,1.28-3.7,1.18-1.83-.12-3.54-1.7-3.24-3.86Z"/>
    <path fill="currentColor" class="cls-1" d="M72.98,58.49c-1.57-.29-2.73-.89-3.54-2.06-1.03-1.51-.42-3.15,1.33-3.64,1.83-.51,4.2.4,5.22,2,1.04,1.66.15,3.42-1.87,3.67-.44.05-.89.02-1.13.02Z"/>
    <path fill="currentColor" class="cls-1" d="M74.69,45.87c.74.12,1.41.38,2,.85,1.16.93,1.24,2.39.17,3.43-.95.93-2.14,1.25-3.44,1.22-.94-.02-1.81-.26-2.57-.85-1.18-.91-1.3-2.31-.28-3.39.84-.89,1.92-1.23,3.11-1.29.33-.02.67.02,1,.03Z"/>
    <path fill="currentColor" class="cls-1" d="M70.19,39.75c.79.13,1.48.43,1.96,1.1.58.82.51,1.67.02,2.48-1.01,1.67-3.55,2.38-5.29,1.49-1.26-.64-1.66-1.97-.93-3.17.75-1.23,1.92-1.78,3.31-1.91.31-.03.62.01.93.02Z"/>
    <path fill="currentColor" class="cls-1" d="M66.64,62.92c-1.65-.35-2.9-1.22-3.43-2.88-.47-1.47.38-2.72,1.91-2.94,1.81-.25,3.92,1.11,4.44,2.85.51,1.74-.69,3.19-2.52,3.02-.14-.01-.27-.04-.4-.06Z"/>
  </g>
  <g>
    <path fill="currentColor" class="cls-1" d="M465.13,30.03c.33-.7.62-1.43,1.01-2.1.78-1.33,1.1-2.74.94-4.27-.09-.89-.12-1.78.15-2.65.44-1.42,1.89-2.39,3.37-2.26,1.65.15,2.9,1.01,3.73,2.36.93,1.51,2.04,2.84,3.28,4.08.67.67,1.1,1.47,1.19,2.43.1,1.17-.4,2.09-1.32,2.75-.53.38-1.14.66-1.75.88-1.36.5-2.65,1.11-3.84,1.94-1.13.78-2.39,1.12-3.78.93-1.81-.24-3.42-1.94-2.98-4.07Z"/>
    <path fill="currentColor" class="cls-1" d="M482.07,35.74c-1.55-.39-2.67-1.07-3.39-2.29-.93-1.57-.21-3.17,1.57-3.55,1.86-.39,4.17.68,5.07,2.35.93,1.72-.08,3.42-2.12,3.54-.44.02-.89-.04-1.13-.05Z"/>
    <path class="cls-1" d="M484.62,23.26c.73.17,1.39.47,1.94.98,1.1,1.01,1.08,2.47-.06,3.43-1.01.86-2.22,1.11-3.51.99-.93-.08-1.79-.38-2.5-1.02-1.11-.99-1.14-2.39-.05-3.4.89-.83,2-1.1,3.19-1.08.33,0,.66.07,1,.1Z"/>
    <path class="cls-1" d="M480.54,16.86c.78.19,1.45.53,1.88,1.23.52.86.39,1.7-.15,2.48-1.12,1.6-3.7,2.13-5.38,1.13-1.21-.73-1.52-2.08-.71-3.23.83-1.18,2.04-1.64,3.44-1.69.31,0,.61.05.92.08Z"/>
    <path class="cls-1" d="M475.45,39.74c-1.63-.46-2.81-1.41-3.23-3.1-.37-1.5.56-2.69,2.11-2.8,1.82-.13,3.84,1.37,4.24,3.14.4,1.77-.9,3.13-2.71,2.84-.13-.02-.27-.06-.4-.09Z"/>
  </g>
  <g>
    <path class="cls-1" d="M111.03,72.67c.18-.76.3-1.53.54-2.27.48-1.47.49-2.91.02-4.38-.28-.85-.5-1.71-.41-2.63.13-1.48,1.34-2.74,2.82-2.92,1.65-.21,3.05.37,4.14,1.51,1.22,1.28,2.59,2.34,4.07,3.29.79.51,1.39,1.2,1.67,2.12.34,1.12.05,2.13-.71,2.97-.43.48-.98.88-1.52,1.23-1.22.78-2.35,1.64-3.35,2.71-.93,1-2.1,1.6-3.49,1.71-1.83.15-3.75-1.17-3.77-3.35Z"/>
    <path class="cls-1" d="M128.79,74.66c-1.59-.06-2.83-.48-3.8-1.52-1.24-1.34-.88-3.06.78-3.8,1.74-.78,4.22-.22,5.45,1.22,1.27,1.49.65,3.36-1.32,3.91-.43.12-.87.15-1.12.19Z"/>
    <path class="cls-1" d="M128.64,61.93c.75,0,1.45.17,2.1.54,1.29.75,1.58,2.18.67,3.37-.81,1.06-1.93,1.55-3.22,1.71-.93.12-1.83,0-2.66-.46-1.3-.73-1.62-2.1-.77-3.32.7-1,1.72-1.5,2.89-1.73.33-.07.66-.08.99-.11Z"/>
    <path class="cls-1" d="M123.29,56.53c.8.02,1.53.21,2.1.8.69.72.74,1.57.38,2.45-.75,1.8-3.17,2.87-5.02,2.24-1.34-.45-1.93-1.71-1.38-3,.56-1.33,1.64-2.04,3-2.38.3-.07.61-.08.92-.12Z"/>
    <path class="cls-1" d="M123.17,79.97c-1.69-.1-3.05-.78-3.81-2.34-.68-1.39-.02-2.75,1.46-3.19,1.75-.51,4.04.52,4.81,2.18.76,1.65-.22,3.25-2.05,3.35-.14,0-.27,0-.41,0Z"/>
  </g>
  <g>
    <path class="cls-1" d="M157.67,91.75c.31-.71.58-1.45.95-2.13.75-1.35,1.02-2.77.82-4.3-.11-.88-.17-1.77.08-2.66.4-1.43,1.82-2.44,3.31-2.36,1.66.1,2.93.93,3.79,2.25.97,1.48,2.11,2.78,3.39,3.98.69.65,1.15,1.44,1.25,2.39.13,1.17-.34,2.1-1.24,2.79-.52.39-1.12.69-1.73.93-1.34.54-2.62,1.18-3.79,2.04-1.1.81-2.36,1.19-3.75,1.04-1.82-.19-3.47-1.84-3.09-3.99Z"/>
    <path class="cls-1" d="M174.76,96.98c-1.56-.35-2.7-.99-3.45-2.19-.97-1.55-.3-3.17,1.47-3.59,1.85-.44,4.18.56,5.13,2.2.98,1.7.02,3.43-2.02,3.6-.44.04-.89-.01-1.13-.02Z"/>
    <path class="cls-1" d="M176.96,84.44c.73.15,1.4.43,1.96.92,1.13.98,1.15,2.44.04,3.43-.99.89-2.19,1.17-3.48,1.09-.93-.06-1.8-.33-2.53-.95-1.14-.96-1.21-2.36-.15-3.4.87-.86,1.97-1.15,3.16-1.17.33,0,.67.05,1,.07Z"/>
    <path class="cls-1" d="M172.7,78.15c.79.16,1.47.49,1.92,1.18.55.84.44,1.68-.08,2.48-1.07,1.63-3.64,2.24-5.34,1.28-1.23-.69-1.58-2.03-.8-3.21.8-1.2,1.99-1.7,3.39-1.78.31-.02.62.03.92.05Z"/>
    <path class="cls-1" d="M168.25,101.16c-1.64-.41-2.85-1.33-3.32-3.01-.41-1.49.49-2.71,2.03-2.86,1.82-.18,3.87,1.26,4.32,3.02.45,1.76-.82,3.16-2.63,2.92-.14-.02-.27-.05-.4-.08Z"/>
  </g>
  <g>
    <path class="cls-1" d="M417.91,17.15c.17-.76.29-1.53.53-2.27.47-1.47.47-2.91-.02-4.38-.28-.84-.51-1.71-.43-2.62.12-1.48,1.32-2.75,2.79-2.95,1.64-.22,3.05.35,4.16,1.48,1.23,1.27,2.61,2.32,4.09,3.26.8.51,1.4,1.19,1.69,2.11.35,1.12.06,2.13-.69,2.97-.43.48-.97.89-1.51,1.25-1.21.79-2.34,1.66-3.33,2.73-.93,1.01-2.09,1.62-3.48,1.74-1.82.16-3.76-1.14-3.8-3.32Z"/>
    <path class="cls-1" d="M435.68,19.01c-1.59-.04-2.84-.46-3.81-1.49-1.25-1.33-.9-3.05.76-3.8,1.73-.79,4.21-.25,5.46,1.18,1.29,1.48.67,3.36-1.29,3.92-.42.12-.87.16-1.12.2Z"/>
    <path class="cls-1" d="M435.44,6.28c.75,0,1.46.15,2.11.53,1.29.74,1.59,2.17.7,3.36-.8,1.06-1.92,1.57-3.21,1.73-.93.12-1.83.02-2.66-.44-1.3-.72-1.64-2.08-.8-3.31.69-1.01,1.71-1.51,2.88-1.75.33-.07.66-.08.99-.12Z"/>
    <path class="cls-1" d="M430.05.92c.8.01,1.53.2,2.11.79.7.72.75,1.57.4,2.45-.74,1.81-3.15,2.89-5,2.28-1.34-.44-1.94-1.69-1.4-2.99.55-1.33,1.63-2.05,2.98-2.4.3-.08.61-.08.92-.12Z"/>
    <path class="cls-1" d="M430.1,24.36c-1.69-.09-3.05-.76-3.83-2.32-.69-1.38-.04-2.75,1.44-3.2,1.75-.53,4.04.49,4.82,2.14.77,1.64-.2,3.26-2.02,3.37-.14,0-.27,0-.41,0Z"/>
  </g>
  <g>
    <path class="cls-1" d="M221.4,95.56c-.16-.76-.37-1.52-.46-2.29-.17-1.54-.77-2.85-1.82-3.98-.6-.65-1.17-1.35-1.48-2.21-.5-1.4.07-3.05,1.33-3.84,1.41-.88,2.92-.94,4.4-.36,1.65.65,3.33,1.04,5.07,1.28.93.13,1.77.51,2.41,1.22.78.87.94,1.91.6,2.99-.19.62-.51,1.21-.87,1.76-.78,1.22-1.45,2.48-1.9,3.86-.43,1.3-1.24,2.33-2.45,3.02-1.6.9-3.89.51-4.83-1.46Z"/>
    <path class="cls-1" d="M238.36,89.92c-1.47.62-2.77.75-4.09.21-1.69-.7-2.08-2.41-.88-3.78,1.25-1.43,3.73-1.97,5.46-1.18,1.78.82,2,2.78.44,4.1-.34.28-.73.5-.94.64Z"/>
    <path class="cls-1" d="M232.88,78.43c.68-.31,1.39-.46,2.14-.39,1.48.15,2.35,1.32,2.02,2.78-.29,1.3-1.11,2.22-2.21,2.9-.8.49-1.66.77-2.61.69-1.48-.12-2.35-1.22-2.09-2.69.21-1.2.94-2.08,1.9-2.78.27-.2.57-.35.86-.52Z"/>
    <path class="cls-1" d="M225.77,75.77c.74-.32,1.48-.45,2.24-.15.93.37,1.33,1.12,1.37,2.07.07,1.95-1.67,3.93-3.61,4.14-1.4.15-2.47-.74-2.51-2.15-.05-1.44.64-2.54,1.73-3.41.24-.19.52-.33.78-.49Z"/>
    <path class="cls-1" d="M235.48,97.11c-1.57.61-3.09.57-4.44-.53-1.2-.97-1.17-2.49,0-3.51,1.38-1.2,3.89-1.22,5.28-.04,1.38,1.17,1.16,3.05-.45,3.9-.12.06-.25.11-.37.17Z"/>
  </g>
  <g>
    <path class="cls-1" d="M367.01,19.74c-.11-.77-.28-1.54-.32-2.31-.08-1.54-.6-2.89-1.58-4.08-.56-.69-1.09-1.41-1.35-2.29-.42-1.43.25-3.04,1.55-3.75,1.46-.79,2.97-.77,4.41-.1,1.61.74,3.27,1.23,4.99,1.58.93.19,1.73.61,2.33,1.36.73.92.82,1.96.42,3.02-.23.61-.59,1.18-.97,1.71-.85,1.17-1.59,2.39-2.13,3.74-.51,1.27-1.37,2.26-2.63,2.87-1.65.8-3.92.28-4.73-1.74Z"/>
    <path class="cls-1" d="M384.28,15.11c-1.5.53-2.81.59-4.09-.03-1.65-.79-1.93-2.52-.66-3.82,1.34-1.36,3.84-1.74,5.52-.85,1.73.92,1.83,2.89.2,4.12-.35.26-.76.46-.97.58Z"/>
    <path class="cls-1" d="M379.49,3.31c.7-.27,1.41-.38,2.15-.26,1.47.23,2.27,1.46,1.85,2.89-.37,1.28-1.23,2.15-2.37,2.77-.82.45-1.7.67-2.65.54-1.47-.21-2.28-1.36-1.93-2.81.28-1.19,1.06-2.02,2.06-2.66.28-.18.59-.31.88-.47Z"/>
    <path class="cls-1" d="M372.54.24c.75-.28,1.5-.36,2.25-.02.91.42,1.27,1.19,1.25,2.14-.04,1.95-1.9,3.83-3.85,3.92-1.41.07-2.42-.88-2.38-2.29.04-1.44.79-2.5,1.93-3.31.25-.18.54-.3.81-.44Z"/>
    <path class="cls-1" d="M380.98,22.11c-1.61.52-3.12.39-4.41-.79-1.14-1.04-1.02-2.55.2-3.5,1.45-1.12,3.95-.99,5.27.27,1.31,1.25.98,3.11-.68,3.87-.12.06-.25.1-.38.15Z"/>
  </g>
  <g>
    <path class="cls-1" d="M274.41,68.51c-.11-.77-.27-1.54-.3-2.31-.07-1.54-.58-2.89-1.55-4.09-.56-.69-1.08-1.42-1.33-2.3-.41-1.43.27-3.04,1.58-3.74,1.46-.78,2.98-.75,4.41-.07,1.6.75,3.26,1.26,4.97,1.62.92.19,1.73.62,2.32,1.38.72.92.81,1.97.4,3.02-.23.6-.59,1.17-.98,1.7-.86,1.16-1.61,2.38-2.15,3.73-.51,1.27-1.39,2.25-2.65,2.85-1.65.79-3.92.25-4.72-1.77Z"/>
    <path class="cls-1" d="M291.7,64c-1.51.52-2.82.57-4.09-.06-1.64-.81-1.92-2.54-.63-3.83,1.35-1.35,3.86-1.72,5.53-.81,1.72.93,1.81,2.91.17,4.12-.35.26-.76.45-.98.58Z"/>
    <path class="cls-1" d="M287,52.17c.7-.26,1.42-.37,2.16-.24,1.47.24,2.25,1.47,1.83,2.9-.38,1.28-1.25,2.14-2.39,2.75-.83.44-1.71.66-2.65.52-1.47-.22-2.27-1.37-1.91-2.82.29-1.19,1.07-2.01,2.08-2.65.28-.18.59-.31.89-.46Z"/>
    <path class="cls-1" d="M280.08,49.05c.76-.27,1.5-.35,2.25,0,.91.43,1.26,1.2,1.23,2.15-.06,1.95-1.93,3.81-3.88,3.89-1.41.06-2.41-.9-2.37-2.31.05-1.44.8-2.49,1.95-3.29.25-.18.54-.29.82-.44Z"/>
    <path class="cls-1" d="M288.35,70.98c-1.61.51-3.12.36-4.4-.82-1.13-1.05-1.01-2.56.23-3.5,1.45-1.11,3.96-.96,5.27.31,1.3,1.26.96,3.12-.71,3.87-.12.06-.25.1-.38.15Z"/>
  </g>
  <g>
    <path class="cls-1" d="M323.14,45.36c-.35-.69-.75-1.37-1.04-2.09-.57-1.44-1.49-2.54-2.8-3.36-.75-.47-1.48-.99-2.01-1.75-.85-1.22-.73-2.96.28-4.05,1.13-1.22,2.57-1.68,4.15-1.51,1.76.19,3.49.13,5.23-.09.94-.12,1.84.03,2.64.55.99.64,1.41,1.6,1.37,2.73-.02.65-.18,1.3-.37,1.93-.43,1.38-.75,2.77-.82,4.22-.07,1.37-.58,2.58-1.57,3.56-1.3,1.29-3.62,1.52-5.04-.14Z"/>
    <path class="cls-1" d="M338.02,35.46c-1.26.98-2.48,1.46-3.89,1.28-1.81-.23-2.64-1.78-1.84-3.41.83-1.71,3.09-2.88,4.96-2.57,1.93.32,2.66,2.16,1.5,3.84-.25.36-.57.68-.73.86Z"/>
    <path class="cls-1" d="M329.72,25.81c.58-.47,1.22-.81,1.96-.93,1.47-.25,2.61.66,2.68,2.15.06,1.33-.48,2.43-1.37,3.38-.64.69-1.4,1.18-2.34,1.36-1.46.28-2.59-.56-2.72-2.04-.11-1.22.36-2.25,1.1-3.18.21-.26.46-.48.69-.73Z"/>
    <path class="cls-1" d="M322.16,25.11c.63-.5,1.31-.82,2.13-.73,1,.11,1.58.73,1.86,1.63.58,1.86-.58,4.23-2.4,4.94-1.31.51-2.57-.07-2.99-1.41-.42-1.38-.05-2.62.77-3.75.18-.25.42-.45.63-.68Z"/>
    <path class="cls-1" d="M337.13,43.15c-1.36,1.01-2.84,1.36-4.43.66-1.41-.63-1.78-2.09-.93-3.38,1.01-1.52,3.43-2.2,5.08-1.42,1.64.77,1.92,2.63.59,3.89-.1.09-.21.18-.31.26Z"/>
  </g>
</svg>