<svg width="221" height="246" viewBox="0 0 221 246" fill="none" xmlns="http://www.w3.org/2000/svg">
<g clip-path="url(#clip0_9_938)">
<path d="M73.545 204.821C73.0496 204.71 72.5476 204.632 72.0652 204.475C71.107 204.161 70.1683 204.161 69.21 204.475C68.6624 204.658 68.0953 204.802 67.5021 204.756C66.5373 204.677 65.7159 203.886 65.5855 202.925C65.4421 201.852 65.8202 200.93 66.5568 200.21C67.3847 199.406 68.0757 198.51 68.6885 197.542C69.0209 197.018 69.4707 196.626 70.064 196.443C70.7941 196.214 71.4525 196.404 72 196.894C72.3129 197.175 72.5802 197.529 72.8084 197.888C73.3234 198.686 73.884 199.419 74.5815 200.066C75.2334 200.675 75.631 201.433 75.7092 202.342C75.807 203.533 74.9596 204.795 73.5385 204.821H73.545Z" fill="black"/>
<path d="M74.7836 193.199C74.751 194.239 74.4837 195.056 73.8057 195.691C72.9387 196.508 71.8175 196.273 71.3286 195.194C70.8201 194.062 71.1721 192.44 72.1043 191.623C73.0691 190.785 74.2946 191.191 74.6532 192.473C74.7314 192.748 74.751 193.042 74.7836 193.205V193.199Z" fill="black"/>
<path d="M66.4851 193.336C66.4851 192.846 66.5894 192.388 66.8306 191.963C67.3195 191.119 68.2517 190.923 69.0209 191.511C69.7119 192.035 70.0379 192.774 70.1487 193.611C70.2269 194.219 70.1552 194.808 69.8554 195.351C69.386 196.201 68.4929 196.417 67.6976 195.867C67.0458 195.416 66.7133 194.742 66.5634 193.984C66.5177 193.768 66.5112 193.552 66.4851 193.336Z" fill="black"/>
<path d="M62.9845 196.855C62.9911 196.332 63.1149 195.854 63.4995 195.481C63.9689 195.024 64.523 194.991 65.0966 195.226C66.2765 195.71 66.974 197.287 66.5764 198.497C66.2831 199.373 65.4682 199.765 64.6208 199.412C63.7538 199.046 63.2844 198.346 63.0628 197.457C63.0106 197.26 63.0106 197.058 62.9845 196.855Z" fill="black"/>
<path d="M78.2646 196.861C78.2059 197.967 77.7626 198.856 76.7457 199.36C75.8461 199.811 74.953 199.38 74.6662 198.412C74.3272 197.267 74.9922 195.769 76.0678 195.259C77.1368 194.755 78.1929 195.39 78.2581 196.587C78.2581 196.678 78.2581 196.763 78.2581 196.855L78.2646 196.861Z" fill="black"/>
<path d="M84.5291 177.868C84.1119 177.58 83.6687 177.325 83.2775 176.998C82.5018 176.357 81.6283 176.01 80.6244 175.952C80.0442 175.919 79.464 175.847 78.9295 175.585C78.0625 175.154 77.5801 174.12 77.8148 173.178C78.0755 172.125 78.76 171.406 79.7118 171.007C80.7743 170.562 81.7456 169.98 82.6713 169.306C83.1667 168.94 83.7273 168.744 84.3531 168.79C85.1158 168.842 85.6569 169.261 85.9894 169.921C86.1784 170.301 86.2957 170.726 86.3805 171.144C86.5695 172.073 86.8238 172.969 87.2344 173.826C87.6191 174.63 87.7103 175.487 87.4496 176.357C87.1106 177.502 85.859 178.365 84.5226 177.868H84.5291Z" fill="black"/>
<path d="M89.9267 167.508C89.516 168.469 88.9684 169.123 88.108 169.463C86.9998 169.902 86.0415 169.274 85.9828 168.09C85.9242 166.847 86.8433 165.467 88.0102 165.055C89.2162 164.63 90.207 165.454 90.0701 166.782C90.044 167.07 89.9528 167.351 89.9202 167.508H89.9267Z" fill="black"/>
<path d="M82.1498 164.591C82.3323 164.133 82.5931 163.741 82.9777 163.44C83.7404 162.831 84.6791 162.995 85.181 163.826C85.6308 164.571 85.6699 165.369 85.4613 166.193C85.3114 166.788 85.0311 167.312 84.5552 167.704C83.8056 168.319 82.8994 168.201 82.3584 167.39C81.9151 166.73 81.8564 165.984 81.9868 165.219C82.0259 165.003 82.0976 164.794 82.1498 164.584V164.591Z" fill="black"/>
<path d="M77.6127 166.573C77.8148 166.089 78.1016 165.69 78.597 165.48C79.2033 165.232 79.7313 165.402 80.1746 165.827C81.0937 166.71 81.172 168.437 80.3571 169.418C79.7639 170.124 78.8643 170.189 78.2059 169.549C77.5345 168.894 77.352 168.064 77.4693 167.155C77.4954 166.958 77.5671 166.762 77.6127 166.566V166.573Z" fill="black"/>
<path d="M91.8302 172.197C91.3674 173.205 90.6372 173.872 89.5095 173.97C88.5056 174.055 87.8342 173.335 87.9189 172.322C88.0232 171.131 89.1901 169.98 90.3765 169.908C91.5564 169.83 92.3061 170.811 91.9345 171.949C91.9084 172.034 91.8693 172.112 91.8367 172.197H91.8302Z" fill="black"/>
<path d="M106.172 148.168C105.715 147.945 105.239 147.756 104.809 147.494C103.949 146.971 103.036 146.755 102.032 146.847C101.452 146.899 100.872 146.912 100.305 146.729C99.3789 146.428 98.7597 145.48 98.8509 144.512C98.9552 143.432 99.5289 142.621 100.409 142.085C101.4 141.49 102.273 140.77 103.088 139.973C103.525 139.541 104.053 139.26 104.679 139.214C105.441 139.155 106.041 139.489 106.465 140.097C106.706 140.443 106.889 140.849 107.032 141.248C107.351 142.137 107.736 142.988 108.271 143.773C108.773 144.512 108.988 145.342 108.857 146.245C108.688 147.429 107.573 148.469 106.185 148.168H106.172Z" fill="black"/>
<path d="M110.005 137.127C109.737 138.135 109.294 138.867 108.492 139.332C107.462 139.927 106.419 139.449 106.191 138.279C105.95 137.055 106.66 135.558 107.756 134.976C108.883 134.38 109.985 135.048 110.05 136.382C110.063 136.67 110.018 136.964 110.011 137.121L110.005 137.127Z" fill="black"/>
<path d="M101.889 135.375C102 134.897 102.202 134.472 102.541 134.112C103.205 133.399 104.157 133.426 104.777 134.171C105.331 134.838 105.481 135.63 105.396 136.473C105.337 137.082 105.135 137.644 104.718 138.102C104.066 138.821 103.153 138.834 102.495 138.115C101.96 137.526 101.791 136.8 101.81 136.022C101.81 135.806 101.856 135.59 101.882 135.375H101.889Z" fill="black"/>
<path d="M97.6906 138.004C97.8144 137.494 98.0426 137.055 98.5054 136.781C99.066 136.441 99.6136 136.532 100.116 136.898C101.152 137.638 101.478 139.338 100.813 140.424C100.331 141.209 99.4507 141.405 98.701 140.869C97.9383 140.319 97.6449 139.521 97.6254 138.612C97.6254 138.409 97.6645 138.213 97.6841 138.01L97.6906 138.004Z" fill="black"/>
<path d="M112.573 141.483C112.267 142.543 111.634 143.315 110.533 143.576C109.555 143.805 108.779 143.19 108.72 142.183C108.649 140.993 109.633 139.685 110.8 139.436C111.954 139.188 112.84 140.051 112.638 141.228C112.625 141.313 112.599 141.405 112.579 141.49L112.573 141.483Z" fill="black"/>
<path d="M113.108 112.038C112.599 112.012 112.091 112.019 111.589 111.947C110.591 111.803 109.666 111.96 108.779 112.437C108.264 112.712 107.736 112.954 107.143 113.006C106.178 113.091 105.233 112.457 104.946 111.528C104.627 110.495 104.835 109.52 105.448 108.689C106.126 107.754 106.654 106.753 107.097 105.694C107.332 105.125 107.71 104.661 108.271 104.373C108.949 104.026 109.633 104.098 110.259 104.49C110.617 104.713 110.937 105.02 111.224 105.334C111.862 106.027 112.547 106.662 113.342 107.179C114.092 107.669 114.607 108.349 114.842 109.232C115.141 110.39 114.516 111.777 113.121 112.045L113.108 112.038Z" fill="black"/>
<path d="M112.371 100.37C112.514 101.403 112.384 102.247 111.83 102.986C111.113 103.941 109.965 103.902 109.301 102.914C108.603 101.881 108.681 100.226 109.464 99.2646C110.272 98.277 111.55 98.4667 112.123 99.6702C112.247 99.9318 112.319 100.213 112.371 100.37Z" fill="black"/>
<path d="M104.216 101.92C104.138 101.436 104.157 100.965 104.327 100.507C104.666 99.5917 105.552 99.245 106.413 99.6898C107.182 100.089 107.625 100.756 107.879 101.567C108.062 102.149 108.088 102.744 107.879 103.333C107.56 104.248 106.719 104.615 105.839 104.209C105.115 103.876 104.685 103.267 104.398 102.548C104.32 102.345 104.275 102.129 104.216 101.92Z" fill="black"/>
<path d="M101.361 105.982C101.282 105.465 101.322 104.974 101.641 104.536C102.026 104.006 102.567 103.876 103.173 104.013C104.418 104.294 105.376 105.727 105.181 106.989C105.044 107.898 104.307 108.428 103.408 108.219C102.495 108.009 101.915 107.394 101.543 106.557C101.465 106.374 101.419 106.171 101.361 105.982Z" fill="black"/>
<path d="M116.419 103.392C116.543 104.49 116.263 105.445 115.35 106.113C114.535 106.708 113.59 106.44 113.14 105.53C112.612 104.458 113.016 102.868 113.988 102.188C114.959 101.508 116.1 101.959 116.373 103.124C116.393 103.209 116.406 103.3 116.419 103.385V103.392Z" fill="black"/>
<path d="M107.769 68.4264C107.312 68.6487 106.869 68.9104 106.4 69.0869C105.461 69.4467 104.731 70.0419 104.183 70.8856C103.87 71.3761 103.525 71.847 103.029 72.1806C102.228 72.73 101.093 72.6319 100.389 71.9648C99.6071 71.2191 99.3203 70.2642 99.4441 69.2374C99.5876 68.0863 99.5615 66.9548 99.4311 65.8167C99.3594 65.2019 99.4637 64.6133 99.8092 64.09C100.233 63.4491 100.865 63.1809 101.602 63.2202C102.026 63.2398 102.449 63.351 102.853 63.4818C103.747 63.7761 104.653 63.9919 105.598 64.0573C106.491 64.1162 107.273 64.4563 107.899 65.1169C108.727 65.9802 108.857 67.4976 107.762 68.4133L107.769 68.4264Z" fill="black"/>
<path d="M101.452 58.6091C102.078 59.4398 102.378 60.2442 102.254 61.1599C102.091 62.3437 101.074 62.867 100.011 62.3372C98.9031 61.7747 98.1599 60.29 98.3816 59.067C98.6097 57.8046 99.8157 57.3468 100.898 58.1186C101.133 58.2886 101.335 58.4979 101.452 58.6091Z" fill="black"/>
<path d="M95.0831 63.9527C94.7767 63.5668 94.5681 63.1482 94.4898 62.6642C94.3399 61.7028 94.9397 60.9637 95.911 60.931C96.778 60.9048 97.4885 61.2711 98.1013 61.8532C98.5445 62.2783 98.8574 62.7819 98.9617 63.3902C99.1312 64.3516 98.5706 65.0776 97.6058 65.1561C96.8105 65.215 96.1391 64.901 95.5394 64.4105C95.3699 64.2732 95.2265 64.1097 95.07 63.9527H95.0831Z" fill="black"/>
<path d="M94.5616 68.8907C94.2421 68.4787 94.0335 68.0274 94.0987 67.4911C94.177 66.837 94.5876 66.4642 95.1808 66.2876C96.3999 65.9214 97.9383 66.7062 98.3816 67.9031C98.701 68.7665 98.3164 69.584 97.4363 69.8456C96.5368 70.1073 95.7284 69.8587 94.9983 69.3093C94.8353 69.1916 94.705 69.0346 94.5616 68.8907Z" fill="black"/>
<path d="M106.452 59.2566C107.097 60.1527 107.312 61.1207 106.843 62.1606C106.426 63.0763 105.461 63.3117 104.633 62.7362C103.649 62.0625 103.232 60.4732 103.753 59.4005C104.268 58.3344 105.487 58.1644 106.289 59.0539C106.348 59.1193 106.4 59.1912 106.458 59.2632L106.452 59.2566Z" fill="black"/>
<path d="M89.2748 32.5061C89.1053 32.9836 88.975 33.4807 88.7664 33.945C88.3492 34.8672 88.2449 35.8025 88.46 36.7901C88.5838 37.3591 88.6621 37.9412 88.5512 38.5299C88.3687 39.4848 87.4952 40.2173 86.5239 40.237C85.4418 40.2566 84.5748 39.7857 83.9425 38.9681C83.2384 38.0524 82.4236 37.2676 81.5305 36.5481C81.0481 36.1622 80.7091 35.6717 80.5918 35.0569C80.4419 34.3047 80.7026 33.6703 81.2502 33.1732C81.5631 32.892 81.9412 32.6631 82.3193 32.4734C83.1602 32.0483 83.9555 31.5643 84.6726 30.943C85.344 30.3543 86.1458 30.0469 87.0519 30.0665C88.2449 30.0992 89.4052 31.0803 89.2683 32.4996L89.2748 32.5061Z" fill="black"/>
<path d="M77.8995 30.0011C78.9295 30.145 79.7052 30.5047 80.2593 31.2503C80.9699 32.2053 80.6244 33.2975 79.4901 33.6638C78.3102 34.0497 76.7392 33.5199 76.0417 32.4996C75.3181 31.4466 75.8526 30.2693 77.1629 30.0469C77.4497 30.0011 77.7366 30.0077 77.8995 30.0011Z" fill="black"/>
<path d="M77.1303 38.2879C76.6479 38.229 76.1981 38.0786 75.807 37.7908C75.0248 37.2152 74.9335 36.2603 75.5984 35.554C76.1981 34.9195 76.9608 34.6775 77.8018 34.6579C78.4145 34.6448 78.9882 34.7822 79.4966 35.1419C80.2854 35.7044 80.4093 36.6135 79.7704 37.3526C79.2489 37.9543 78.5514 38.2094 77.7822 38.2813C77.5671 38.301 77.3454 38.2813 77.1303 38.2813V38.2879Z" fill="black"/>
<path d="M80.2267 42.1664C79.7052 42.101 79.2489 41.9244 78.923 41.4993C78.5253 40.9826 78.5514 40.4266 78.8448 39.8772C79.4575 38.7588 81.0937 38.229 82.2476 38.7588C83.082 39.1447 83.3818 40.0015 82.9386 40.806C82.4822 41.6301 81.7326 42.0225 80.833 42.1468C80.6374 42.1729 80.4288 42.1598 80.2267 42.1598V42.1664Z" fill="black"/>
<path d="M81.9086 26.9271C82.9972 27.1102 83.8316 27.64 84.2228 28.7126C84.5683 29.661 84.0468 30.5047 83.0559 30.6813C81.8825 30.8972 80.4745 30.0665 80.0899 28.935C79.7052 27.8101 80.4549 26.8355 81.6478 26.8944C81.7391 26.8944 81.8239 26.914 81.9151 26.9206L81.9086 26.9271Z" fill="black"/>
<path d="M28.3698 27.6793C28.4415 28.1829 28.5523 28.6865 28.5849 29.1901C28.6436 30.1973 28.9825 31.0803 29.6214 31.8586C29.993 32.3099 30.3319 32.7808 30.5014 33.3564C30.7752 34.2917 30.345 35.3447 29.491 35.8091C28.5458 36.3323 27.5549 36.3127 26.6162 35.881C25.5667 35.397 24.4846 35.0765 23.3633 34.8542C22.7571 34.7364 22.2356 34.4552 21.8445 33.9647C21.3686 33.3629 21.3034 32.6827 21.5642 31.9894C21.7141 31.5905 21.9422 31.2177 22.19 30.871C22.7441 30.1058 23.2199 29.3078 23.5719 28.4183C23.8979 27.5877 24.4585 26.9402 25.2799 26.5412C26.3489 26.0114 27.8352 26.3516 28.3698 27.6727V27.6793Z" fill="black"/>
<path d="M17.1249 30.7337C18.1027 30.387 18.9566 30.3412 19.791 30.7467C20.8666 31.2634 21.0557 32.3949 20.2278 33.2452C19.3608 34.1347 17.7246 34.3898 16.6294 33.8142C15.5017 33.219 15.43 31.924 16.4925 31.1195C16.7207 30.943 16.988 30.8187 17.1249 30.7337Z" fill="black"/>
<path d="M20.2604 38.4383C19.8041 38.6149 19.3412 38.6869 18.8589 38.6149C17.9006 38.4645 17.3791 37.6666 17.6464 36.7247C17.881 35.8875 18.4482 35.3185 19.1913 34.913C19.7259 34.6187 20.2995 34.4683 20.9188 34.5533C21.8771 34.6841 22.4051 35.4363 22.1834 36.3846C22.0009 37.1629 21.499 37.7058 20.8471 38.1309C20.6646 38.2487 20.4625 38.3337 20.2734 38.4383H20.2604Z" fill="black"/>
<path d="M24.7975 40.4397C24.3086 40.6228 23.8197 40.6817 23.3307 40.4528C22.7375 40.1781 22.5029 39.6745 22.5159 39.0531C22.542 37.7777 23.748 36.5481 25.0191 36.4827C25.9383 36.4369 26.5967 37.0583 26.5771 37.9805C26.551 38.9223 26.0686 39.6156 25.3255 40.1454C25.1625 40.2631 24.9735 40.3416 24.7975 40.4397Z" fill="black"/>
<path d="M19.263 26.1488C20.3125 25.8087 21.2969 25.8937 22.1378 26.6589C22.8809 27.3392 22.8092 28.3268 22.014 28.9481C21.0752 29.6806 19.439 29.6022 18.5785 28.7781C17.7246 27.9605 17.9332 26.744 19.0153 26.2469C19.0935 26.2077 19.1783 26.1815 19.263 26.1488Z" fill="black"/>
<path d="M57.5153 18.5422C57.6913 19.0197 57.9064 19.4841 58.0433 19.9746C58.3106 20.9491 58.8256 21.734 59.6209 22.3619C60.0772 22.7216 60.5074 23.114 60.7942 23.6372C61.2636 24.4875 61.0615 25.6125 60.3314 26.2534C59.5166 26.9663 58.5453 27.1626 57.5348 26.9402C56.4071 26.6916 55.2859 26.6066 54.1386 26.6262C53.5258 26.6393 52.9521 26.4758 52.4632 26.0834C51.87 25.5994 51.6614 24.9453 51.7722 24.2128C51.8309 23.7942 51.9808 23.3756 52.1503 22.9897C52.5284 22.1199 52.8283 21.2434 52.9847 20.3016C53.1281 19.4186 53.5453 18.6665 54.2559 18.104C55.1946 17.3584 56.7135 17.378 57.5153 18.5553V18.5422Z" fill="black"/>
<path d="M47.17 23.9185C48.0565 23.3691 48.8779 23.1467 49.7775 23.3626C50.9378 23.6373 51.3615 24.7034 50.7292 25.7106C50.0708 26.7636 48.5259 27.3653 47.3329 27.0318C46.1009 26.6851 45.7619 25.4359 46.6289 24.4287C46.8179 24.2128 47.0461 24.0297 47.1634 23.9185H47.17Z" fill="black"/>
<path d="M51.87 30.7794C51.4593 31.0476 51.0226 31.2177 50.5337 31.2504C49.5624 31.3092 48.8909 30.6355 48.9496 29.661C49.0017 28.7911 49.4385 28.1175 50.0773 27.5615C50.5402 27.1626 51.0682 26.8944 51.6875 26.8486C52.6523 26.7767 53.3237 27.398 53.3107 28.3725C53.2976 29.1705 52.9195 29.8115 52.372 30.3608C52.222 30.5178 52.0395 30.6421 51.8765 30.786L51.87 30.7794Z" fill="black"/>
<path d="M56.72 31.7736C56.2767 32.0548 55.8139 32.2183 55.2924 32.1006C54.6535 31.9567 54.3211 31.512 54.1972 30.9037C53.9495 29.6479 54.8752 28.1894 56.1007 27.8624C56.9873 27.6204 57.763 28.0913 57.939 28.9939C58.115 29.9226 57.7891 30.701 57.1763 31.3746C57.0394 31.5251 56.8764 31.6428 56.72 31.7736Z" fill="black"/>
<path d="M48.2977 18.9804C49.2495 18.4245 50.2338 18.2937 51.2116 18.8693C52.0851 19.3794 52.222 20.3539 51.5701 21.1323C50.8074 22.0479 49.1908 22.3161 48.1739 21.6947C47.1634 21.0799 47.1113 19.8438 48.0696 19.1243C48.1413 19.072 48.2195 19.0262 48.2912 18.9739L48.2977 18.9804Z" fill="black"/>
<path d="M8.35057 52.9124C8.72214 53.259 9.1263 53.573 9.46528 53.9523C10.1432 54.6979 10.9581 55.1688 11.9489 55.3651C12.5161 55.4828 13.0832 55.6332 13.5721 55.9733C14.3739 56.5227 14.6999 57.615 14.3348 58.5176C13.9241 59.5248 13.1484 60.1396 12.151 60.3947C11.0363 60.6824 9.9933 61.1207 8.98289 61.657C8.44183 61.9448 7.85514 62.0625 7.24237 61.9317C6.49271 61.7682 6.01684 61.2776 5.78216 60.5778C5.64527 60.1788 5.59312 59.7406 5.56704 59.3155C5.51489 58.3737 5.38452 57.4449 5.09769 56.5423C4.83042 55.6921 4.85649 54.8353 5.2411 54.0046C5.74305 52.9189 7.10548 52.2452 8.35057 52.9255V52.9124Z" fill="black"/>
<path d="M1.54495 62.4026C2.08601 61.5131 2.71833 60.9375 3.62445 60.7217C4.78479 60.4404 5.63875 61.1991 5.53445 62.383C5.41711 63.6257 4.31544 64.8553 3.09642 65.0973C1.84482 65.3458 0.977817 64.3909 1.29724 63.0959C1.36894 62.8146 1.4928 62.553 1.54495 62.3961V62.4026Z" fill="black"/>
<path d="M8.82644 66.3988C8.57873 66.824 8.26583 67.1771 7.84862 67.4191C7.0077 67.9097 6.10159 67.6154 5.7235 66.7258C5.378 65.9279 5.46275 65.1234 5.78217 64.3386C6.01032 63.7696 6.36234 63.2921 6.89688 62.9716C7.72477 62.468 8.6048 62.7165 9.02852 63.593C9.37402 64.3124 9.32839 65.058 9.08719 65.7971C9.022 66.0064 8.9177 66.1961 8.83296 66.3988H8.82644Z" fill="black"/>
<path d="M13.5982 65.0777C13.3309 65.5289 12.9919 65.8821 12.4704 66.0195C11.8381 66.183 11.3362 65.941 10.9581 65.4505C10.1758 64.4432 10.3388 62.7231 11.284 61.8728C11.9685 61.258 12.8681 61.3169 13.4287 62.0494C14.0024 62.795 14.061 63.6388 13.8198 64.5217C13.7677 64.7179 13.6699 64.8945 13.5917 65.0842L13.5982 65.0777Z" fill="black"/>
<path d="M0.325938 57.4907C0.925667 56.562 1.74052 56.006 2.87478 56.0714C3.87868 56.1303 4.44581 56.9413 4.21766 57.9289C3.95039 59.0931 2.63359 60.0676 1.44717 59.9695C0.267269 59.878 -0.332459 58.7988 0.195563 57.7262C0.234675 57.6477 0.280307 57.5692 0.325938 57.4907Z" fill="black"/>
<path d="M9.15238 85.9025C9.65433 85.8502 10.1628 85.7586 10.6647 85.7455C11.6686 85.7259 12.5617 85.425 13.3635 84.8102C13.8264 84.457 14.3087 84.1366 14.8889 83.9861C15.8276 83.7441 16.8641 84.2216 17.2944 85.0915C17.7767 86.0595 17.7246 87.0536 17.2552 87.9758C16.7337 89.0092 16.3752 90.0818 16.1079 91.1937C15.9645 91.7954 15.6712 92.3121 15.1627 92.685C14.5434 93.1428 13.8655 93.1755 13.1875 92.8877C12.7964 92.7242 12.4313 92.4757 12.0989 92.214C11.3557 91.6319 10.58 91.1152 9.713 90.7359C8.89815 90.3762 8.27235 89.7875 7.9073 88.9503C7.42491 87.8581 7.81603 86.3865 9.15238 85.8959V85.9025Z" fill="black"/>
<path d="M11.7534 97.296C11.447 96.3018 11.434 95.445 11.8707 94.6209C12.4313 93.5679 13.5591 93.4175 14.3739 94.2808C15.2279 95.1834 15.4169 96.8381 14.7977 97.9108C14.1588 99.0161 12.8681 99.0357 12.1119 97.9435C11.9489 97.708 11.8316 97.4333 11.7534 97.296Z" fill="black"/>
<path d="M19.5499 94.4509C19.7063 94.9153 19.7585 95.3862 19.6672 95.8636C19.4781 96.8185 18.6633 97.3091 17.7376 97.0082C16.9097 96.7401 16.3687 96.1514 15.9906 95.3927C15.7168 94.8433 15.5929 94.2612 15.7038 93.6464C15.8733 92.6915 16.6425 92.1879 17.5812 92.456C18.3504 92.6719 18.8719 93.1951 19.2695 93.8622C19.3804 94.0519 19.4586 94.2547 19.5499 94.4509Z" fill="black"/>
<path d="M21.7206 89.9837C21.8836 90.4808 21.9227 90.9714 21.675 91.4554C21.3816 92.0375 20.8666 92.2533 20.2474 92.2206C18.9762 92.1486 17.8028 90.8863 17.7898 89.6109C17.7833 88.6887 18.4221 88.0478 19.3413 88.1066C20.28 88.1655 20.9514 88.6822 21.4468 89.4474C21.5576 89.6175 21.6293 89.8071 21.7141 89.9903L21.7206 89.9837Z" fill="black"/>
<path d="M7.26845 94.9741C6.96859 93.908 7.09245 92.9269 7.88774 92.1159C8.59177 91.3965 9.5761 91.5077 10.1628 92.3318C10.8538 93.3063 10.7104 94.9414 9.85641 95.772C9.00897 96.5961 7.80951 96.3411 7.3532 95.2357C7.3206 95.1507 7.29453 95.0657 7.26845 94.9807V94.9741Z" fill="black"/>
<path d="M39.5821 110.861C39.9471 110.508 40.2861 110.128 40.6838 109.808C41.466 109.173 41.981 108.382 42.2418 107.408C42.3917 106.845 42.5742 106.289 42.9393 105.818C43.5325 105.053 44.6407 104.785 45.5142 105.21C46.492 105.681 47.0526 106.492 47.2482 107.512C47.4698 108.65 47.8414 109.716 48.3107 110.763C48.565 111.325 48.6497 111.914 48.4802 112.522C48.2716 113.261 47.7566 113.713 47.0461 113.902C46.6419 114.013 46.1987 114.04 45.7749 114.04C44.8297 114.04 43.904 114.112 42.9849 114.34C42.1179 114.556 41.2705 114.478 40.4686 114.046C39.4191 113.477 38.8259 112.077 39.5821 110.867V110.861Z" fill="black"/>
<path d="M48.6106 118.252C47.7567 117.656 47.2286 116.983 47.0657 116.074C46.8571 114.896 47.6654 114.079 48.8388 114.262C50.0643 114.452 51.2246 115.635 51.3941 116.865C51.5701 118.134 50.5597 118.945 49.2951 118.546C49.0213 118.461 48.7605 118.317 48.6171 118.252H48.6106Z" fill="black"/>
<path d="M53.0238 111.201C53.428 111.469 53.7605 111.809 53.9821 112.247C54.4189 113.117 54.0734 114.007 53.1607 114.334C52.3459 114.628 51.5506 114.504 50.7944 114.131C50.2468 113.863 49.7905 113.484 49.4972 112.934C49.0474 112.071 49.3472 111.208 50.2468 110.835C50.9835 110.534 51.7201 110.625 52.4371 110.907C52.6392 110.985 52.8283 111.096 53.0238 111.194V111.201Z" fill="black"/>
<path d="M52.0004 106.341C52.4371 106.636 52.7631 106.995 52.8674 107.525C52.9912 108.173 52.7174 108.657 52.209 109.003C51.1595 109.729 49.4581 109.455 48.6693 108.461C48.0956 107.741 48.213 106.838 48.9757 106.322C49.7514 105.792 50.5988 105.785 51.4593 106.08C51.6484 106.145 51.8244 106.25 52.0069 106.341H52.0004Z" fill="black"/>
<path d="M43.6498 119.18C42.7633 118.526 42.2548 117.67 42.3917 116.538C42.509 115.537 43.35 115.021 44.3213 115.308C45.462 115.649 46.3486 117.029 46.1856 118.206C46.0227 119.383 44.9145 119.919 43.878 119.324C43.7997 119.278 43.728 119.226 43.6563 119.18H43.6498Z" fill="black"/>
<path d="M132.696 99.4216C132.573 98.9311 132.41 98.4405 132.331 97.9435C132.175 96.9428 131.745 96.1056 131.028 95.3992C130.617 94.9872 130.226 94.5555 129.998 93.9996C129.626 93.097 129.952 92.0047 130.754 91.4553C131.647 90.8405 132.631 90.7555 133.609 91.0891C134.698 91.4619 135.812 91.6712 136.947 91.7758C137.56 91.8347 138.114 92.057 138.55 92.5018C139.085 93.0512 139.215 93.7249 139.026 94.4378C138.922 94.8498 138.726 95.2422 138.511 95.6151C138.042 96.4326 137.644 97.2763 137.383 98.192C137.142 99.0553 136.647 99.7552 135.878 100.239C134.867 100.874 133.355 100.69 132.69 99.4281L132.696 99.4216Z" fill="black"/>
<path d="M143.576 95.2423C142.638 95.687 141.79 95.8178 140.923 95.5039C139.802 95.0984 139.496 93.993 140.239 93.0643C141.014 92.0898 142.612 91.6712 143.759 92.1355C144.945 92.613 145.141 93.8949 144.163 94.804C143.954 95.0003 143.7 95.1507 143.57 95.2488L143.576 95.2423Z" fill="black"/>
<path d="M139.672 87.8908C140.108 87.6684 140.565 87.5507 141.054 87.5768C142.025 87.6291 142.618 88.3682 142.449 89.3297C142.299 90.1865 141.79 90.8144 141.099 91.2918C140.597 91.6385 140.043 91.8412 139.417 91.8216C138.446 91.7889 137.846 91.0956 137.977 90.1276C138.081 89.3362 138.524 88.741 139.131 88.257C139.3 88.1197 139.489 88.015 139.672 87.8908Z" fill="black"/>
<path d="M134.958 86.3669C135.428 86.1379 135.91 86.0267 136.419 86.2033C137.038 86.4126 137.318 86.8966 137.37 87.5114C137.475 88.7868 136.393 90.1276 135.141 90.3238C134.235 90.4612 133.511 89.9118 133.44 88.9961C133.368 88.0543 133.779 87.3152 134.463 86.7135C134.613 86.5827 134.796 86.4846 134.958 86.3669Z" fill="black"/>
<path d="M141.908 100.017C140.897 100.462 139.906 100.481 139 99.801C138.192 99.1992 138.166 98.2116 138.896 97.5118C139.756 96.6877 141.393 96.6027 142.331 97.3287C143.263 98.0547 143.179 99.2843 142.149 99.8925C142.071 99.9383 141.992 99.9776 141.914 100.017H141.908Z" fill="black"/>
<path d="M206.593 8.94082C206.796 8.47645 206.972 7.99246 207.213 7.5477C207.702 6.66474 207.878 5.736 207.747 4.7353C207.669 4.15974 207.637 3.57764 207.793 2.99554C208.054 2.06025 208.979 1.39313 209.944 1.45199C211.026 1.51739 211.854 2.05371 212.421 2.92359C213.054 3.89158 213.803 4.7353 214.631 5.5267C215.081 5.95183 215.381 6.46853 215.453 7.08987C215.537 7.85511 215.231 8.46337 214.644 8.91466C214.312 9.16974 213.914 9.36595 213.523 9.52293C212.649 9.87611 211.822 10.3012 211.059 10.8637C210.342 11.3935 209.52 11.642 208.614 11.5439C207.428 11.4197 206.352 10.347 206.593 8.94082Z" fill="black"/>
<path d="M217.734 12.3484C216.717 12.1195 215.974 11.7009 215.479 10.916C214.84 9.90226 215.277 8.8427 216.43 8.568C217.636 8.28022 219.155 8.92773 219.781 10.0069C220.42 11.1122 219.794 12.2503 218.471 12.3615C218.184 12.3876 217.891 12.3549 217.734 12.3484Z" fill="black"/>
<path d="M219.162 4.14666C219.638 4.24477 220.074 4.4279 220.446 4.74838C221.183 5.38935 221.196 6.34426 220.472 6.99176C219.827 7.57386 219.044 7.757 218.203 7.70467C217.597 7.66543 217.03 7.48884 216.554 7.08987C215.811 6.46852 215.765 5.54632 216.456 4.86611C217.024 4.30363 217.741 4.10742 218.516 4.10088C218.731 4.10088 218.953 4.13358 219.168 4.14666H219.162Z" fill="black"/>
<path d="M216.378 0.0392427C216.893 0.14389 217.336 0.359725 217.63 0.811018C217.988 1.36042 217.917 1.90982 217.578 2.43305C216.88 3.49915 215.205 3.89812 214.097 3.27677C213.295 2.82548 213.067 1.94906 213.569 1.17728C214.09 0.392428 214.866 0.0654045 215.772 0.00654034C215.974 -0.00654059 216.176 0.0261617 216.372 0.0392427H216.378Z" fill="black"/>
<path d="M213.497 15.0954C212.428 14.8272 211.639 14.2255 211.333 13.1333C211.065 12.1587 211.646 11.3608 212.649 11.2627C213.836 11.1449 215.179 12.0802 215.472 13.2379C215.765 14.389 214.944 15.3047 213.758 15.1477C213.666 15.1346 213.582 15.115 213.497 15.0954Z" fill="black"/>
<path d="M150.33 74.9276C149.945 74.6006 149.535 74.2932 149.176 73.9334C148.472 73.214 147.638 72.7758 146.647 72.6123C146.073 72.5207 145.506 72.3899 144.997 72.0694C144.176 71.5527 143.811 70.4735 144.143 69.5579C144.515 68.5375 145.271 67.8966 146.256 67.6023C147.364 67.2752 148.387 66.7978 149.378 66.2222C149.913 65.9148 150.486 65.7709 151.106 65.8821C151.862 66.0195 152.357 66.4904 152.611 67.1837C152.761 67.5826 152.833 68.0143 152.872 68.4394C152.957 69.3813 153.12 70.2969 153.439 71.193C153.739 72.0367 153.739 72.8935 153.387 73.7372C152.924 74.8425 151.594 75.5685 150.323 74.9276H150.33Z" fill="black"/>
<path d="M156.783 65.1954C156.275 66.1045 155.662 66.6997 154.769 66.9482C153.622 67.2687 152.735 66.5427 152.8 65.3589C152.872 64.1162 153.928 62.8408 155.134 62.553C156.373 62.2587 157.279 63.1809 157.005 64.489C156.946 64.7702 156.829 65.0449 156.783 65.1954Z" fill="black"/>
<path d="M149.359 61.4738C149.587 61.0422 149.887 60.6759 150.304 60.4143C151.125 59.891 152.038 60.1527 152.455 61.0291C152.827 61.8139 152.774 62.6184 152.488 63.4164C152.279 63.9919 151.946 64.4825 151.425 64.8226C150.617 65.3589 149.724 65.143 149.274 64.2797C148.902 63.5733 148.922 62.8277 149.13 62.0821C149.189 61.8728 149.28 61.6766 149.359 61.4673V61.4738Z" fill="black"/>
<path d="M144.639 62.9716C144.887 62.5072 145.219 62.141 145.734 61.9905C146.36 61.8009 146.868 62.0298 147.266 62.5072C148.087 63.4818 147.983 65.2084 147.07 66.0979C146.412 66.7389 145.506 66.7128 144.919 65.9998C144.319 65.2739 144.228 64.4367 144.437 63.5472C144.482 63.351 144.574 63.1678 144.645 62.9781L144.639 62.9716Z" fill="black"/>
<path d="M158.185 70.0615C157.624 71.0098 156.823 71.5985 155.688 71.5789C154.684 71.5592 154.091 70.7678 154.28 69.7737C154.508 68.603 155.786 67.5826 156.972 67.6284C158.152 67.6807 158.791 68.7272 158.309 69.826C158.27 69.9045 158.224 69.983 158.185 70.0615Z" fill="black"/>
<path d="M49.6862 232.075C49.3016 231.748 48.8909 231.441 48.5324 231.081C47.8284 230.362 46.994 229.924 46.0031 229.76C45.4294 229.668 44.8623 229.538 44.3538 229.217C43.5325 228.7 43.1674 227.621 43.4999 226.706C43.8715 225.685 44.6276 225.044 45.612 224.75C46.7202 224.423 47.7436 223.946 48.7345 223.37C49.269 223.063 49.8427 222.919 50.462 223.03C51.2181 223.167 51.7136 223.638 51.9678 224.331C52.1177 224.73 52.1894 225.162 52.2285 225.587C52.3133 226.529 52.4763 227.445 52.7957 228.341C53.0955 229.184 53.0955 230.041 52.7435 230.885C52.2807 231.99 50.9509 232.716 49.6797 232.075H49.6862Z" fill="black"/>
<path d="M56.1398 222.343C55.6314 223.252 55.0186 223.847 54.1255 224.096C52.9782 224.416 52.0917 223.69 52.1568 222.507C52.2285 221.264 53.2846 219.989 54.4906 219.701C55.7291 219.406 56.6352 220.329 56.3615 221.637C56.3028 221.918 56.1855 222.193 56.1398 222.343Z" fill="black"/>
<path d="M48.7149 218.622C48.9431 218.19 49.2429 217.824 49.6601 217.562C50.4815 217.039 51.3941 217.3 51.8113 218.177C52.1829 218.962 52.1308 219.766 51.8439 220.564C51.6353 221.14 51.3029 221.63 50.7814 221.97C49.973 222.507 49.08 222.291 48.6302 221.427C48.2586 220.721 48.2782 219.975 48.4868 219.23C48.5454 219.021 48.6367 218.824 48.7149 218.615V218.622Z" fill="black"/>
<path d="M43.9953 220.113C44.243 219.648 44.5755 219.282 45.0905 219.132C45.7163 218.942 46.2247 219.171 46.6224 219.648C47.4437 220.623 47.3394 222.35 46.4268 223.239C45.7684 223.88 44.8623 223.854 44.2756 223.141C43.6759 222.415 43.5846 221.578 43.7932 220.688C43.8389 220.492 43.9301 220.309 44.0018 220.119L43.9953 220.113Z" fill="black"/>
<path d="M57.5414 227.203C56.9807 228.151 56.1789 228.74 55.0447 228.72C54.0408 228.7 53.4476 227.909 53.6366 226.915C53.8648 225.744 55.1424 224.724 56.3289 224.77C57.5088 224.822 58.1476 225.868 57.6652 226.967C57.6261 227.046 57.5805 227.124 57.5414 227.203Z" fill="black"/>
<path d="M155.095 43.4025C154.73 43.0494 154.339 42.7158 154.013 42.3364C153.355 41.5712 152.553 41.0807 151.575 40.8518C151.008 40.721 150.454 40.5509 149.971 40.1977C149.189 39.6287 148.889 38.5234 149.28 37.6339C149.717 36.6397 150.512 36.0511 151.516 35.8221C152.644 35.5671 153.694 35.1616 154.717 34.6514C155.271 34.3767 155.858 34.2786 156.464 34.429C157.207 34.6122 157.67 35.1223 157.885 35.8287C158.009 36.2342 158.048 36.6724 158.061 37.0975C158.087 38.0459 158.191 38.9681 158.446 39.8838C158.687 40.7471 158.635 41.5974 158.231 42.4149C157.696 43.4876 156.321 44.122 155.095 43.4025Z" fill="black"/>
<path d="M162.174 34.1151C161.607 34.9915 160.955 35.5409 160.049 35.7306C158.882 35.9726 158.048 35.1942 158.191 34.0104C158.341 32.7743 159.482 31.5708 160.708 31.3681C161.966 31.1522 162.807 32.1398 162.448 33.4218C162.37 33.6965 162.24 33.9646 162.181 34.1151H162.174Z" fill="black"/>
<path d="M155.017 29.9096C155.271 29.491 155.597 29.1509 156.027 28.9154C156.881 28.451 157.774 28.765 158.133 29.6741C158.452 30.4851 158.348 31.2831 158.009 32.0548C157.761 32.6173 157.396 33.0817 156.855 33.3891C156.014 33.8731 155.141 33.5918 154.743 32.7023C154.417 31.9763 154.489 31.2307 154.743 30.4982C154.815 30.2954 154.926 30.0992 155.017 29.903V29.9096Z" fill="black"/>
<path d="M150.206 31.0868C150.486 30.6421 150.838 30.302 151.36 30.1777C151.999 30.0338 152.488 30.2889 152.853 30.7925C153.609 31.8194 153.387 33.533 152.422 34.3571C151.718 34.9523 150.819 34.8607 150.278 34.1151C149.724 33.3498 149.691 32.5061 149.958 31.6297C150.017 31.44 150.121 31.2569 150.199 31.0738L150.206 31.0868Z" fill="black"/>
<path d="M163.257 39.0597C162.631 39.9688 161.796 40.5051 160.669 40.407C159.665 40.322 159.124 39.4913 159.384 38.5103C159.684 37.3526 161.034 36.4239 162.214 36.5481C163.387 36.6724 163.961 37.7712 163.4 38.8242C163.361 38.9027 163.309 38.9746 163.263 39.0531L163.257 39.0597Z" fill="black"/>
<path d="M174.345 23.3429C174.312 22.8328 174.247 22.3291 174.26 21.819C174.286 20.8118 174.026 19.9026 173.452 19.072C173.119 18.5945 172.82 18.0909 172.702 17.5023C172.507 16.5474 173.028 15.5336 173.915 15.1412C174.906 14.703 175.89 14.8011 176.783 15.3112C177.787 15.8802 178.836 16.2923 179.938 16.6062C180.531 16.7763 181.033 17.0968 181.379 17.62C181.803 18.261 181.809 18.9477 181.49 19.6149C181.307 19.9942 181.046 20.3539 180.773 20.6744C180.16 21.3939 179.612 22.146 179.188 22.9963C178.791 23.8007 178.178 24.3959 177.331 24.723C176.216 25.1546 174.769 24.6968 174.345 23.3364V23.3429Z" fill="black"/>
<path d="M185.805 21.25C184.801 21.5116 183.947 21.4854 183.152 21.0145C182.128 20.4063 182.031 19.2682 182.93 18.4899C183.869 17.6789 185.518 17.5612 186.561 18.2283C187.637 18.9216 187.598 20.2166 186.47 20.923C186.229 21.0734 185.955 21.178 185.805 21.25Z" fill="black"/>
<path d="M183.328 13.3033C183.797 13.166 184.267 13.1333 184.743 13.251C185.688 13.4799 186.138 14.3236 185.792 15.2327C185.486 16.0503 184.873 16.567 184.104 16.9071C183.543 17.1556 182.963 17.2538 182.357 17.1164C181.411 16.9006 180.949 16.1092 181.255 15.187C181.503 14.4283 182.05 13.9247 182.735 13.5584C182.924 13.4537 183.132 13.3883 183.334 13.3033H183.328Z" fill="black"/>
<path d="M178.98 10.9291C179.482 10.7918 179.977 10.7721 180.44 11.0403C181.007 11.3608 181.196 11.884 181.138 12.5054C181.007 13.7742 179.697 14.8992 178.426 14.8534C177.507 14.8207 176.9 14.147 176.998 13.2314C177.102 12.2961 177.644 11.642 178.426 11.1777C178.595 11.073 178.791 11.0141 178.98 10.9291Z" fill="black"/>
<path d="M183.289 25.6386C182.213 25.8937 181.242 25.7236 180.466 24.8865C179.782 24.1474 179.938 23.1663 180.786 22.6169C181.783 21.9629 183.406 22.1853 184.195 23.0748C184.977 23.9643 184.671 25.1546 183.543 25.5601C183.458 25.5928 183.374 25.6125 183.289 25.6386Z" fill="black"/>
<path d="M12.3922 243.593C12.3596 243.083 12.2944 242.579 12.3075 242.069C12.3335 241.062 12.0728 240.153 11.4991 239.322C11.1667 238.845 10.8668 238.341 10.7495 237.752C10.5539 236.798 11.0754 235.784 11.962 235.391C12.9528 234.953 13.9372 235.051 14.8302 235.561C15.8341 236.13 16.8837 236.542 17.9853 236.856C18.5786 237.026 19.0805 237.347 19.426 237.87C19.8497 238.511 19.8562 239.198 19.5368 239.865C19.3543 240.244 19.0935 240.604 18.8197 240.925C18.207 241.644 17.6594 242.396 17.2357 243.246C16.838 244.051 16.2253 244.646 15.3778 244.973C14.2631 245.405 12.8159 244.947 12.3922 243.587V243.593Z" fill="black"/>
<path d="M23.8523 241.507C22.8484 241.768 21.9944 241.742 21.1991 241.271C20.1757 240.663 20.0779 239.525 20.9775 238.747C21.9162 237.936 23.5654 237.818 24.6084 238.485C25.684 239.178 25.6449 240.473 24.5172 241.18C24.276 241.33 24.0022 241.435 23.8523 241.507Z" fill="black"/>
<path d="M21.3751 233.56C21.8445 233.423 22.3138 233.39 22.7897 233.508C23.7349 233.737 24.1847 234.58 23.8392 235.489C23.5328 236.307 22.9201 236.824 22.1508 237.164C21.5902 237.412 21.0101 237.51 20.4038 237.373C19.4586 237.157 18.9958 236.366 19.3021 235.444C19.5499 234.685 20.0974 234.181 20.7819 233.815C20.9709 233.71 21.1795 233.645 21.3816 233.56H21.3751Z" fill="black"/>
<path d="M17.0271 231.186C17.529 231.048 18.0245 231.029 18.4873 231.297C19.0544 231.618 19.2435 232.141 19.1848 232.762C19.0544 234.031 17.7441 235.156 16.473 235.11C15.5538 235.077 14.9476 234.404 15.0454 233.488C15.1497 232.553 15.6907 231.899 16.473 231.434C16.6425 231.33 16.838 231.271 17.0271 231.186Z" fill="black"/>
<path d="M21.336 245.889C20.2604 246.144 19.2891 245.974 18.5134 245.137C17.8289 244.398 17.9853 243.417 18.8328 242.867C19.8302 242.213 21.4533 242.435 22.2421 243.325C23.0244 244.214 22.718 245.405 21.5902 245.81C21.5055 245.843 21.4207 245.863 21.336 245.889Z" fill="black"/>
<path d="M73.734 115.982C73.7992 115.478 73.8253 114.968 73.9361 114.471C74.1512 113.484 74.06 112.548 73.6558 111.626C73.4211 111.096 73.219 110.547 73.2125 109.945C73.1995 108.971 73.897 108.075 74.8422 107.852C75.8983 107.604 76.8435 107.892 77.6323 108.559C78.5123 109.304 79.4706 109.906 80.4875 110.423C81.0351 110.704 81.4718 111.109 81.713 111.692C82.0129 112.398 81.889 113.072 81.4523 113.667C81.2046 114.007 80.8786 114.308 80.5462 114.576C79.8095 115.165 79.1316 115.805 78.5579 116.564C78.0169 117.277 77.3063 117.748 76.4067 117.912C75.2334 118.127 73.897 117.401 73.734 115.989V115.982Z" fill="black"/>
<path d="M85.3831 116.087C84.3466 116.159 83.5122 115.969 82.8212 115.354C81.9281 114.563 82.0455 113.425 83.0755 112.83C84.1511 112.208 85.7938 112.404 86.6934 113.255C87.6191 114.138 87.3387 115.4 86.1002 115.884C85.8329 115.989 85.5461 116.041 85.3896 116.08L85.3831 116.087Z" fill="black"/>
<path d="M84.4314 107.813C84.9203 107.767 85.3831 107.82 85.8329 108.029C86.7195 108.434 86.9998 109.344 86.4913 110.174C86.035 110.92 85.344 111.312 84.5161 111.502C83.9229 111.639 83.3297 111.626 82.756 111.378C81.8695 110.992 81.5631 110.122 82.0324 109.272C82.4171 108.572 83.0494 108.179 83.786 107.95C83.9946 107.885 84.2097 107.859 84.4248 107.813H84.4314Z" fill="black"/>
<path d="M80.6048 104.661C81.1263 104.615 81.6087 104.693 82.0194 105.04C82.5148 105.465 82.6061 106.014 82.4301 106.61C82.065 107.833 80.5657 108.689 79.3272 108.408C78.4276 108.205 77.9582 107.427 78.232 106.544C78.5058 105.642 79.1642 105.105 80.0181 104.798C80.2072 104.732 80.4093 104.706 80.6048 104.661Z" fill="black"/>
<path d="M82.0911 119.919C80.9894 119.965 80.0638 119.619 79.464 118.651C78.9295 117.794 79.2685 116.865 80.2007 116.479C81.3023 116.028 82.8538 116.545 83.4666 117.571C84.0728 118.592 83.5448 119.704 82.3649 119.893C82.2802 119.906 82.1889 119.913 82.0976 119.919H82.0911Z" fill="black"/>
</g>
<defs>
<clipPath id="clip0_9_938">
<rect width="221" height="246" fill="white"/>
</clipPath>
</defs>
</svg>
