<?xml version="1.0" encoding="UTF-8"?>
<svg id="Layer_1" data-name="Layer 1" xmlns="http://www.w3.org/2000/svg" viewBox="0 0 101.07 108.15">
  <defs>
    <style>
      .cls-1 {
        fill: #f38299;
      }

      .cls-1, .cls-2, .cls-3 {
        stroke-width: 0px;
      }

      .cls-2 {
        fill: #fff;
      }

      .cls-3 {
        fill: #231f20;
      }
    </style>
  </defs>
  <path class="cls-1" d="M62.74,95.64c-.39,7.03-3.54,12.51-7.36,12.51s-6.98-5.48-7.36-12.51c-.03-.48,7.19-7.25,7.19-7.25,0,0,7.56,6.78,7.53,7.26Z"/>
  <circle class="cls-3" cx="37.01" cy="52.36" r="6.89"/>
  <circle class="cls-3" cx="73.52" cy="52.36" r="6.89"/>
  <circle class="cls-2" cx="38.94" cy="50.85" r="1.94"/>
  <circle class="cls-2" cx="76.35" cy="50.85" r="1.94"/>
  <path class="cls-3" d="M83.73,88.09c-.22,0-.44-.07-.63-.22-4.65-3.77-11.19-4.71-11.25-4.72-.55-.08-.93-.58-.85-1.13.08-.55.58-.93,1.13-.85.29.04,7.14,1.02,12.24,5.15.43.35.5.98.15,1.41-.2.24-.49.37-.78.37Z"/>
  <path class="cls-3" d="M78.1,83.58c-.55,0-1,.45-1,1,0,5.76-4.69,10.45-10.45,10.45-5.25,0-9.59-3.9-10.32-8.95,3.31-1.22,10.39-6.96,10.39-10.35,0-3.81-3.09-6.89-6.89-6.89h-9.06c-3.81,0-6.89,3.09-6.89,6.89,0,3.41,6.95,9.21,10.38,10.37-.74,5.04-5.08,8.93-10.32,8.93-5.72,0-10.38-4.63-10.44-10.34,3.02-1.17,5.55-1.54,5.59-1.55.55-.08.93-.58.85-1.13-.08-.55-.58-.93-1.13-.85-.29.04-7.14,1.02-12.24,5.15-.43.35-.5.98-.15,1.41.2.24.49.37.78.37.22,0,.44-.07.63-.22,1.16-.94,2.44-1.71,3.71-2.32.49,6.42,5.86,11.49,12.4,11.49,3.33,0,6.35-1.31,8.58-3.45,1.56-1.49,4-1.49,5.56,0,2.23,2.14,5.26,3.45,8.58,3.45,6.86,0,12.45-5.58,12.45-12.45,0-.55-.45-1-1-1Z"/>
  <path class="cls-3" d="M7.79,46.47c-1.97,0-3.84-.7-4.6-1.38-1.48-1.34-4.68-16.76-2.39-22.98,1-2.73,2.77-3.34,4.08-3.38,4.98-.14,6-.79,9.01-2.72,1.36-.87,3.06-1.96,5.62-3.34,8.86-4.76,19.6,3.72,20.05,4.08.43.35.5.97.15,1.41-.34.43-.98.5-1.41.16-.1-.08-10.17-8.01-17.86-3.88-2.5,1.34-4.16,2.41-5.49,3.26-3.18,2.04-4.5,2.88-10.03,3.04-.53.01-1.31.17-1.95,1.37-2.67,5.01.76,19.97,1.61,21.55.84.64,4.2,1.45,5.94-.06,4.07-3.55,6.23-7.69,8.14-11.35,2.13-4.09,4.14-7.95,8.32-9.95.5-.24,1.09-.03,1.33.47.24.5.03,1.1-.47,1.33-3.58,1.71-5.35,5.12-7.41,9.07-1.99,3.82-4.24,8.14-8.6,11.94-1.15,1-2.63,1.37-4.06,1.37Z"/>
  <g>
    <path class="cls-3" d="M92.74,42.06c-.52,0-.95-.4-1-.92-.04-.46.25-.88.67-1.03.2-.14,1.43-1.2,4.03-6.81,2.03-4.38,1.58-9.66,1.24-13.52-.21-2.48-.37-4.26.1-5.4.38-.91,3.56-9-1.91-11.59-10.96-5.18-27.51,16.45-27.68,16.67-.33.44-.96.53-1.4.19-.44-.33-.53-.96-.19-1.4.72-.95,17.71-23.14,30.13-17.27,5.43,2.57,4.96,9.24,2.9,14.17-.28.68-.13,2.51.04,4.46.35,4.08.83,9.67-1.42,14.54-2.39,5.15-4.21,7.8-5.43,7.91-.03,0-.06,0-.08,0ZM92.66,40.06h0,0ZM92.66,40.06h0,0Z"/>
    <g>
      <path class="cls-1" d="M78.94,14.66c-.27-.03-.39-.35-.23-.56,1.91-2.54,10.04-12.45,17.28-8.01,2.85,1.74-2.62,1.78-.94,16.55.83,7.29-3.36,16.13-6.18,15.39s-6.39-9.63-9.43-10.68-1.33-2.58,1.61-2.79c.94-.07-1.35-2.16-3.28-2.44-2.13-.31,2.09-3.11,4.4-4.4,1.54-.86-1.4-2.81-3.22-3.05Z"/>
      <path class="cls-3" d="M89.21,39.06c-.22,0-.42-.03-.59-.07-1.78-.46-3.37-2.86-5.21-5.63-1.38-2.08-3.09-4.66-4.29-5.08-2.04-.7-2.35-1.71-2.26-2.43.14-1.06,1.21-1.71,2.48-2.04-.5-.33-1.13-.63-1.72-.72-1.11-.16-1.36-.87-1.41-1.17-.08-.45-.33-1.8,5.25-4.97-.43-.45-1.62-1.18-2.64-1.31h0c-.47-.06-.88-.37-1.07-.81-.19-.44-.12-.96.17-1.34,2.38-3.16,10.74-13.08,18.6-8.27,1.88,1.15,1.34,2.38.81,3.57-.79,1.79-2.26,5.11-1.28,13.71.68,6.02-1.91,13.21-4.68,15.62-.83.72-1.57.93-2.15.93ZM79.03,26.07c.15.09.38.2.74.33,1.84.63,3.52,3.17,5.31,5.86,1.34,2.02,3.01,4.53,4.04,4.8.2.05.55-.11.93-.43,2.07-1.8,4.66-8.1,4.01-13.88-1.04-9.14.64-12.93,1.44-14.75.13-.29.28-.64.32-.81-.05-.05-.15-.13-.35-.25-5.95-3.65-12.94,3.99-15.35,6.98,1.49.5,3.21,1.61,3.45,2.86.14.73-.2,1.41-.91,1.81-1.76.99-3.26,2.04-4.01,2.72,1.67.55,3.67,1.96,3.62,3.12-.02.62-.49,1.08-1.15,1.12-1.07.08-1.76.33-2.09.52ZM79.07,13.67h0,0Z"/>
    </g>
  </g>
</svg>